<svg xmlns="http://www.w3.org/2000/svg" viewBox="0 0 48 48" width="48" height="48">
  <defs>
    <linearGradient id="bg" x1="0%" y1="0%" x2="100%" y2="100%">
      <stop offset="0%" style="stop-color:#7c6af7"/>
      <stop offset="100%" style="stop-color:#b96af7"/>
    </linearGradient>
  </defs>
  <rect width="48" height="48" rx="10" fill="url(#bg)"/>
  <!-- Link icon -->
  <path d="M20 28l-4 4a4 4 0 0 1-5.66-5.66l6-6A4 4 0 0 1 22 20" stroke="white" stroke-width="2.5" fill="none" stroke-linecap="round"/>
  <path d="M28 20l4-4a4 4 0 0 1 5.66 5.66l-6 6A4 4 0 0 1 26 28" stroke="white" stroke-width="2.5" fill="none" stroke-linecap="round"/>
  <line x1="21" y1="27" x2="27" y2="21" stroke="white" stroke-width="2.5" stroke-linecap="round"/>
  <!-- Arrow up-right -->
  <circle cx="36" cy="12" r="7" fill="white" fill-opacity="0.2"/>
  <path d="M33.5 14.5l5-5M38.5 9.5h-3M38.5 9.5v3" stroke="white" stroke-width="1.8" stroke-linecap="round" stroke-linejoin="round"/>
</svg>
